# xmcd
#
# Track frame offsets:
#	150
#	11950
#	25955
#	40530
#	51747
#	64535
#	76075
#	86557
#	100872
#	112517
#	124725
#	139455
#	148495
#	162152
#	174282
#	190005
#	201902
#	216135
#	231800
#	242525
#	259537
#
# Disc length: 3598 seconds
# Revision: 4
# Processed by: cddbd v1.5.2PL0 Copyright (c) Steve Scherf et al.
# Submitted via: dBpowerAMP V12.0
#
DISCID=1d0e0c15
DTITLE=Various Artist - Blues Guitar Blasters
DYEAR=1987
DGENRE=Blues
TTITLE0=Jimmy Nolan - After Hours
TTITLE1=Albert King - Killing Floor
TTITLE2=Albert King - You Threw Your Love on Me Too Strong
TTITLE3=Lowell Fulson - Talkin' Woman
TTITLE4=Lowell Fulson - Everytime It Rains
TTITLE5=B.B. King - Early in the Morning
TTITLE6=B.B. King - Talkin' the Blues
TTITLE7=Elmore James - Dust My Blues
TTITLE8=Elmore James - Elmo's Shuffle
TTITLE9=Lafayette Thomas - Jumpin' in the Heart of the Town
TTITLE10=Lafayette Thomas - Standing in the Back Door Crying
TTITLE11=Guitar Slim - Certainly All
TTITLE12=Guitar Slim - The Things That I Used to Do
TTITLE13=Ike Turner - Twistin' the Strings
TTITLE14=Johnny "Guitar" Watson - Three Hours Past Midnight
TTITLE15=Johnny "Guitar" Watson - Oh Babe
TTITLE16=Pee Wee Crayton - Twinky
TTITLE17=Pee Wee Crayton - Mistreated So Bad
TTITLE18=T-Bone Walker - Hey Hey Baby
TTITLE19=John Lee Hooker - I Had a Good Girl
TTITLE20=Elmore James - Hawaiian Boogie
EXTD=
EXTT0=
EXTT1=
EXTT2=
EXTT3=
EXTT4=
EXTT5=
EXTT6=
EXTT7=
EXTT8=
EXTT9=
EXTT10=
EXTT11=
EXTT12=
EXTT13=
EXTT14=
EXTT15=
EXTT16=
EXTT17=
EXTT18=
EXTT19=
EXTT20=
PLAYORDER=
